<?xml version="1.0" encoding="UTF-8" standalone="no"?>
<svg
   xmlns:dc="http://purl.org/dc/elements/1.1/"
   xmlns:cc="http://creativecommons.org/ns#"
   xmlns:rdf="http://www.w3.org/1999/02/22-rdf-syntax-ns#"
   xmlns:svg="http://www.w3.org/2000/svg"
   xmlns="http://www.w3.org/2000/svg"
   xmlns:xlink="http://www.w3.org/1999/xlink"
   xmlns:sodipodi="http://sodipodi.sourceforge.net/DTD/sodipodi-0.dtd"
   xmlns:inkscape="http://www.inkscape.org/namespaces/inkscape"
   width="299"
   height="299"
   viewBox="0 0 299 299"
   version="1.1"
   id="svg44"
   sodipodi:docname="canva-logo.svg"
   inkscape:version="0.92.0 r15299"
   inkscape:export-filename="C:\Users\suitedoalex\sites\canva-logo-0.png"
   inkscape:export-xdpi="1315.1036"
   inkscape:export-ydpi="1315.1036">
  <metadata
     id="metadata48">
    <rdf:RDF>
      <cc:Work
         rdf:about="">
        <dc:format>image/svg+xml</dc:format>
        <dc:type
           rdf:resource="http://purl.org/dc/dcmitype/StillImage" />
        <dc:title></dc:title>
      </cc:Work>
    </rdf:RDF>
  </metadata>
  <sodipodi:namedview
     pagecolor="#ffffff"
     bordercolor="#666666"
     borderopacity="1"
     objecttolerance="10"
     gridtolerance="10"
     guidetolerance="10"
     inkscape:pageopacity="0"
     inkscape:pageshadow="2"
     inkscape:window-width="1920"
     inkscape:window-height="1017"
     id="namedview46"
     showgrid="false"
     inkscape:zoom="0.90598056"
     inkscape:cx="385.5411"
     inkscape:cy="332.36464"
     inkscape:window-x="-8"
     inkscape:window-y="-8"
     inkscape:window-maximized="1"
     inkscape:current-layer="svg44" />
  <defs
     id="defs40">
    <pattern
       inkscape:collect="always"
       xlink:href="#_2002046508__f"
       id="pattern4526"
       patternTransform="matrix(3.3179304,0,0,3.3179304,16.782779,105.07951)" />
    <radialGradient
       id="_2002046508__a"
       cx="0"
       cy="0"
       r="1"
       gradientTransform="matrix(16.80002,-17.28,11.48403,11.16504,40.96,29)"
       gradientUnits="userSpaceOnUse">
      <stop
         stop-color="#6420FF"
         id="stop2" />
      <stop
         offset="1"
         stop-color="#6420FF"
         stop-opacity="0"
         id="stop4" />
    </radialGradient>
    <radialGradient
       id="_2002046508__b"
       cx="0"
       cy="0"
       r="1"
       gradientTransform="matrix(46.71996,4.16,-3.31561,37.23688,1.92,17.64)"
       gradientUnits="userSpaceOnUse">
      <stop
         offset=".25"
         stop-color="#00C4CC"
         id="stop7" />
      <stop
         offset="1"
         stop-color="#00C4CC"
         stop-opacity="0"
         id="stop9" />
    </radialGradient>
    <radialGradient
       id="_2002046508__c"
       cx="0"
       cy="0"
       r="1"
       gradientTransform="matrix(23.539732,-18.960276,12.964448,16.095738,34.137074,26.202638)"
       gradientUnits="userSpaceOnUse">
      <stop
         stop-color="#6420FF"
         id="stop12" />
      <stop
         offset="1"
         stop-color="#6420FF"
         stop-opacity="0"
         id="stop14" />
    </radialGradient>
    <radialGradient
       id="_2002046508__d"
       cx="0"
       cy="0"
       r="1"
       gradientTransform="matrix(31.32001,-15.36,10.50269,21.41566,2.28,26.2)"
       gradientUnits="userSpaceOnUse">
      <stop
         stop-color="#6420FF"
         id="stop17" />
      <stop
         offset="1"
         stop-color="#6420FF"
         stop-opacity="0"
         id="stop19" />
    </radialGradient>
    <radialGradient
       id="_2002046508__e"
       cx="0"
       cy="0"
       r="1"
       gradientTransform="matrix(67.99982,15.03996,-18.44596,83.39925,7.68,2.92)"
       gradientUnits="userSpaceOnUse">
      <stop
         stop-color="#00C4CC"
         id="stop22" />
      <stop
         offset="1"
         stop-color="#00C4CC"
         stop-opacity="0"
         id="stop24" />
    </radialGradient>
    <pattern
       id="_2002046508__f"
       width="1"
       height="1">
      <path
         fill="#7D2AE7"
         d="M0 0h100v100H0z"
         id="path27" />
      <path
         fill="url(#_2002046508__a)"
         d="M0 0h100v100H0z"
         id="path29" />
      <path
         fill="url(#_2002046508__b)"
         d="M0 0h100v100H0z"
         id="path31" />
      <path
         fill="url(#_2002046508__c)"
         d="M0 0h100v100H0z"
         id="path33" />
      <path
         fill="url(#_2002046508__d)"
         d="M0 0h100v100H0z"
         id="path35" />
      <path
         fill="url(#_2002046508__e)"
         d="M0 0h100v100H0z"
         id="path37" />
    </pattern>
  </defs>
  <path
     d="m 280.37244,165.12082 c -0.45123,0 -0.86266,0.29198 -1.075,0.90248 -2.72071,7.76396 -6.39698,12.38252 -9.42294,12.38252 -1.73858,0 -2.44199,-1.93767 -2.44199,-4.9769 0,-7.60469 4.5522,-23.72983 6.84821,-31.08237 0.26543,-0.88921 0.43797,-1.68551 0.43797,-2.36236 0,-2.13675 -1.16791,-3.18523 -4.06115,-3.18523 -3.11885,0 -6.4766,1.221 -9.74144,6.94111 -1.12809,-5.04324 -4.53894,-7.24636 -9.30348,-7.24636 -5.50777,0 -10.82972,3.54356 -15.20939,9.29021 -4.37967,5.74666 -9.5291,7.63125 -13.40445,6.70222 2.78708,-6.82166 3.82226,-11.91801 3.82226,-15.70044 0,-5.93247 -2.93303,-9.51583 -7.67105,-9.51583 -7.20654,0 -11.36058,6.87476 -11.36058,14.10783 0,5.58741 2.53488,11.33406 8.10901,14.12113 -4.67165,10.56429 -11.49331,20.11993 -14.0813,20.11993 -3.34447,0 -4.32658,-16.36405 -4.14078,-28.0697 0.11937,-6.71548 0.67686,-7.06055 0.67686,-9.09112 0,-1.16791 -0.75648,-1.96423 -3.79571,-1.96423 -7.0871,0 -9.27692,5.99883 -9.60872,12.88685 a 33.952382,33.952382 0 0 1 -1.221,7.73742 c -2.9596,10.56428 -9.0646,18.5804 -13.04611,18.5804 -1.84476,0 -2.34908,-1.84476 -2.34908,-4.26022 0,-7.60469 4.26022,-17.10724 4.26022,-25.21626 0,-5.95902 -2.61453,-9.72819 -7.53834,-9.72819 -5.79975,0 -13.4708,6.90131 -20.73043,19.82797 2.38891,-9.90071 3.37101,-19.48289 -3.70281,-19.48289 a 9.5755475,9.5755475 0 0 0 -4.39295,1.14137 2.4950836,2.4950836 0 0 0 -1.43334,2.41545 c 0.67686,10.53774 -8.49391,37.53243 -17.18688,37.53243 -1.57934,0 -2.34909,-1.71205 -2.34909,-4.47258 0,-7.61796 4.53892,-23.7033 6.82166,-31.0691 0.29197,-0.95557 0.45124,-1.77841 0.45124,-2.49509 0,-2.01729 -1.24754,-3.05249 -4.07442,-3.05249 -3.10559,0 -6.4766,1.18118 -9.72818,6.90129 -1.14137,-5.04324 -4.5522,-7.24636 -9.316738,-7.24636 -7.817048,0 -16.54984,8.26828 -20.385367,19.04492 -5.136154,14.38655 -15.488101,28.28203 -29.423412,28.28203 -12.647947,0 -19.323619,-10.52445 -19.323619,-27.15393 0,-24.00854 17.624843,-43.62415 30.697487,-43.62415 6.250982,0 9.237119,3.98152 9.237119,10.0865 0,7.39236 -4.127505,10.82973 -4.127505,13.64334 0,0.86266 0.716671,1.71205 2.136748,1.71205 5.680295,0 12.369244,-6.67567 12.369244,-15.78008 0,-9.10439 -7.392349,-15.7668 -20.464997,-15.7668 -21.606362,0 -43.345442,21.73909 -43.345442,49.59643 0,22.16378 10.935898,35.52839 29.848103,35.52839 12.900109,0 24.167808,-10.03342 30.246253,-21.73907 0.690128,9.70162 5.096346,14.77141 11.81183,14.77141 5.972278,0 10.803178,-3.55681 14.492726,-9.80778 1.42007,6.54295 5.18923,9.74144 10.08651,9.74144 5.61393,0 10.31212,-3.55683 14.78469,-10.16615 -0.0663,5.18925 1.11484,10.07324 5.61393,10.07324 2.12348,0 4.65839,-0.49105 5.10962,-2.3491 4.73802,-19.58906 16.44367,-35.58148 20.02703,-35.58148 1.06173,0 1.35371,1.02192 1.35371,2.22966 0,5.32196 -3.75589,16.23131 -3.75589,23.19897 0,7.52506 3.19849,12.50195 9.80779,12.50195 7.326,0 14.77143,-8.97167 19.73506,-22.08414 1.5528,12.24981 4.91054,22.13723 10.16614,22.13723 6.45005,0 17.90356,-13.57697 24.84466,-27.95025 2.72071,0.34507 6.8084,0.25216 10.73682,-2.52162 -1.67223,4.23367 -2.65433,8.86551 -2.65433,13.49734 0,13.33808 6.37041,17.08069 11.85164,17.08069 5.95901,0 10.78991,-3.55681 14.49272,-9.80778 1.221,5.64047 4.33986,9.72816 10.07324,9.72816 8.97168,0 16.76219,-9.17075 16.76219,-16.69582 0,-1.99076 -0.84941,-3.19849 -1.84478,-3.19849 z m -186.215528,12.5816 c -3.62318,0 -5.043252,-3.64973 -5.043252,-9.09113 0,-9.44947 6.463322,-25.22954 13.29826,-25.22954 2.98614,0 4.11424,3.51699 4.11424,7.81705 0,9.59544 -6.14481,26.50362 -12.369248,26.50362 z M 218.26079,149.5 c -2.16329,-2.5747 -2.94633,-6.07845 -2.94633,-9.1973 0,-3.84879 1.4068,-7.10037 3.09231,-7.10037 1.68552,0 2.20311,1.65896 2.20311,3.96824 0,3.86208 -1.38025,9.50256 -2.34909,12.32943 z m 28.09623,28.20242 c -3.62318,0 -5.04325,-4.19387 -5.04325,-9.09113 0,-9.11767 6.46333,-25.22954 13.35136,-25.22954 2.98612,0 4.04787,3.49045 4.04787,7.81705 0,9.59544 -6.03863,26.50362 -12.35598,26.50362 z"
     id="path42"
     inkscape:connector-curvature="0"
     style="fill:url(#pattern4526);stroke-width:3.31793022"
     inkscape:export-filename="C:\Users\suitedoalex\sites\canva-logo.png"
     inkscape:export-xdpi="1481.41"
     inkscape:export-ydpi="1481.41" />
</svg>
